# File units = meters
mtllib ChamferBig.mtl
g Part 1
v 0.000995849 0.0375 -0.01 
v 0.015 0.0375 0.01 
v 0.015 0.0375 -0.01 
v 0.015 -0.0375 -0.01 
v 0.000995849 -0.0375 -0.01 
v 0.015 -0.0375 0.01 
vn 0 1 3.46945e-16 
vn 0 1.38778e-16 -1 
vn 1 0 0 
vn -0.819152 -7.95997e-17 0.573576 
vn 0 -1 -3.46945e-16 
usemtl 0.615686_0.811765_0.929412_0.000000_0.000000
f 1//1 2//1 3//1 
f 3//2 4//2 5//2 
f 5//2 1//2 3//2 
f 6//3 4//3 3//3 
f 3//3 2//3 6//3 
f 6//4 2//4 1//4 
f 1//4 5//4 6//4 
f 6//5 5//5 4//5 
