# File units = meters
mtllib chamfer_only.mtl
g Part 1
v 0 0.0375 -0.0035 
v 0.005 0.0375 0.0035 
v 0.005 0.0375 -0.0035 
v 0.005 -0.0375 -0.0035 
v 0 -0.0375 -0.0035 
v 0.005 -0.0375 0.0035 
vn 0 1 0 
vn 0 0 -1 
vn 1 0 0 
vn -0.819152 0 0.573576 
vn 0 -1 0
usemtl 0.615686_0.811765_0.929412_0.000000_0.000000
# o mesh0
f 1//1 2//1 3//1 
# o mesh1
f 3//2 4//2 5//2 
f 5//2 1//2 3//2 
# o mesh2
f 6//3 4//3 3//3 
f 3//3 2//3 6//3 
# o mesh3
f 6//4 2//4 1//4 
f 1//4 5//4 6//4 
# o mesh4
f 6//5 5//5 4//5 
